<?xml version="1.0" encoding="utf-8"?>
<!-- Generator: Adobe Illustrator 23.1.0, SVG Export Plug-In . SVG Version: 6.00 Build 0)  -->
<svg version="1.1" id="Layer_1" xmlns="http://www.w3.org/2000/svg" xmlns:xlink="http://www.w3.org/1999/xlink" x="0px" y="0px"
	 viewBox="0 0 64 64" style="enable-background:new 0 0 64 64;" xml:space="preserve">
<style type="text/css">
	.st0{fill:#FFFFFF;}
</style>
<g>
	<g id="Layer_1-2">
		<path class="st0" d="M15.7,52.2c-2.1,0-4.1-0.5-5.9-1.5c-1.8-1.1-3.3-2.7-4.2-4.6c-1.1-2.5-1.6-5.3-1.5-8
			c-0.1-2.8,0.5-5.6,1.7-8.2c1-2,2.6-3.7,4.6-4.8c1.9-1.1,4-1.6,6.2-1.6c1.3,0,2.5,0.1,3.8,0.4c1.1,0.2,2.2,0.6,3.2,1.2v-7.3
			c0-0.6-0.1-1.2-0.4-1.7c-0.4-0.5-0.9-0.7-1.5-0.8L20.6,15v-0.6L30.8,12l0.6,0.5l-0.2,7.9v27.4c0,0.6,0.1,1.3,0.4,1.8
			c0.3,0.5,0.9,0.9,1.5,1l0.5,0.2v0.6L23.9,52l-0.5-2c-1.1,0.7-2.3,1.3-3.5,1.6C18.6,52,17.1,52.2,15.7,52.2z M19,50.1
			c1.6,0,3.1-0.5,4.3-1.4V26.4c-1.3-0.9-2.7-1.3-4.3-1.3c-1.8,0-3.3,1-4.6,3.1s-1.9,5.3-1.9,9.8c0,4.5,0.6,7.6,1.8,9.4
			C15.3,49,17,50.1,19,50.1z"/>
		<path class="st0" d="M48.8,52.2c-2.4,0-4.8-0.6-6.9-1.7c-2.1-1.1-3.8-2.8-4.9-4.8c-1.3-2.4-1.9-5.1-1.8-7.8
			c-0.1-2.7,0.6-5.4,2-7.8c1.3-2.1,3.1-3.8,5.3-4.9c2.3-1.1,4.8-1.7,7.3-1.7c1.9-0.1,3.8,0.3,5.5,1.1c1.4,0.6,2.5,1.6,3.4,2.8
			c0.8,1,1.2,2.3,1.2,3.6c0.1,0.9-0.3,1.8-1,2.4c-0.7,0.6-1.6,0.9-2.5,0.9c-1,0-2-0.4-2.6-1.2c-0.7-0.9-1.1-2-1.2-3.1
			c0-0.7,0-1.4,0.1-2.1c0.1-0.6,0.1-1.2,0-1.7c-0.1-0.5-0.3-0.9-0.7-1.3c-0.4-0.2-0.9-0.3-1.3-0.3c-2.2-0.1-4.2,1.1-5.3,3
			c-1.3,2-1.9,5.1-1.9,9.5c0,3.8,0.7,6.7,2.1,8.7c1.4,2,3.6,3,6.5,3c1.5,0.1,3-0.3,4.3-1c1.2-0.8,2.3-1.7,3.1-2.9l0.5,0.4
			c-0.9,2.1-2.4,3.9-4.3,5.1C53.6,51.6,51.2,52.2,48.8,52.2z"/>
	</g>
</g>
</svg>
