<?xml version="1.0" encoding="utf-8"?>
<!-- Generator: Adobe Illustrator 23.1.0, SVG Export Plug-In . SVG Version: 6.00 Build 0)  -->
<svg version="1.1" id="Layer_1" xmlns="http://www.w3.org/2000/svg" xmlns:xlink="http://www.w3.org/1999/xlink" x="0px" y="0px"
	 viewBox="0 0 64 64" style="enable-background:new 0 0 64 64;" xml:space="preserve">
<style type="text/css">
	.st0{fill:#FFFFFF;}
</style>
<path class="st0" d="M17.1,26.3V24c-1.1,1.5-2.6,2.5-4.8,2.5c-3.6,0-7.1-2.8-7.1-8v-0.1c0-5.2,3.4-8,7.1-8c2.4,0,3.8,1.1,4.8,2.3
	V5.1h4.4v21.2H17.1z M17.2,18.5c0-2.6-1.7-4.3-3.8-4.3c-2.1,0-3.8,1.7-3.8,4.3v0.1c0,2.6,1.7,4.3,3.8,4.3
	C15.5,22.8,17.2,21.1,17.2,18.5L17.2,18.5z M32,26.6c-4.8,0-8.4-3.6-8.4-8v-0.1c0-4.5,3.6-8.1,8.4-8.1c4.8,0,8.4,3.6,8.4,8v0.1
	C40.4,23,36.8,26.6,32,26.6z M36.1,18.5c0-2.3-1.7-4.3-4.1-4.3c-2.5,0-4,1.9-4,4.2v0.1c0,2.3,1.7,4.3,4.1,4.3
	C34.6,22.8,36.1,20.9,36.1,18.5L36.1,18.5z M51.7,26.6c-2.4,0-3.8-1.1-4.8-2.3v6.7h-4.4V10.7h4.4V13c1.1-1.5,2.6-2.5,4.8-2.5
	c3.6,0,7.1,2.8,7.1,8v0.1C58.8,23.7,55.4,26.6,51.7,26.6z M54.4,18.5c0-2.6-1.7-4.3-3.8-4.3c-2.1,0-3.8,1.7-3.8,4.3v0.1
	c0,2.6,1.7,4.3,3.8,4.3C52.6,22.8,54.4,21.1,54.4,18.5L54.4,18.5z M15.2,54.6c-2.4,0-3.8-1.1-4.8-2.3v6.7H5.9V38.7h4.4v2.2
	c1.1-1.5,2.6-2.5,4.8-2.5c3.6,0,7.1,2.8,7.1,8v0.1C22.2,51.7,18.8,54.6,15.2,54.6z M17.8,46.5c0-2.6-1.7-4.3-3.8-4.3
	s-3.8,1.7-3.8,4.3v0.1c0,2.6,1.7,4.3,3.8,4.3S17.8,49.1,17.8,46.5L17.8,46.5z M24.5,54.3V33.1H29v21.2H24.5z M46.4,48H35.6
	c0.4,2,1.8,3,3.8,3c1.5,0,2.6-0.5,3.8-1.6l2.5,2.2c-1.5,1.8-3.5,2.9-6.4,2.9c-4.7,0-8.1-3.3-8.1-8v-0.1c0-4.4,3.2-8.1,7.7-8.1
	c5.2,0,7.6,4,7.6,8.5v0.1C46.5,47.4,46.4,47.6,46.4,48z M38.9,42c-1.8,0-3,1.3-3.4,3.3h6.6C41.9,43.3,40.7,42,38.9,42z M57.7,43
	c-2.9,0-4.7,1.8-4.7,5.5v5.7h-4.4V38.7H53v3.1c0.9-2.1,2.4-3.5,5-3.4V43H57.7z"/>
</svg>
