<?xml version="1.0" encoding="utf-8"?>
<!-- Generator: Adobe Illustrator 23.1.0, SVG Export Plug-In . SVG Version: 6.00 Build 0)  -->
<svg version="1.1" id="Layer_1" xmlns="http://www.w3.org/2000/svg" xmlns:xlink="http://www.w3.org/1999/xlink" x="0px" y="0px"
	 viewBox="0 0 64 64" style="enable-background:new 0 0 64 64;" xml:space="preserve">
<style type="text/css">
	.st0{fill:#FFFFFF;}
</style>
<path class="st0" d="M15.5,10.5c0.8,0.5,1.5,1.1,2,1.9V4.3H22v23h-4.4v-2.3c-0.5,0.9-1.3,1.6-2.2,2.2c-0.9,0.5-2,0.7-3,0.7
	c-1.9,0-3.7-0.9-4.9-2.4c-1.4-1.7-2.1-4-2-6.2c-0.1-2.4,0.6-4.9,2-6.8c1.3-1.6,3.3-2.6,5.4-2.5C13.7,9.8,14.7,10,15.5,10.5z
	 M16.6,22.7c0.7-1.1,1-2.4,0.9-3.7c0.2-1.7-0.4-3.3-1.6-4.5c-0.6-0.5-1.4-0.8-2.3-0.8c-1.2-0.1-2.3,0.5-2.9,1.5
	c-0.6,1.1-1,2.4-0.9,3.7c0,1.3,0.3,2.6,0.9,3.7c0.6,0.9,1.7,1.5,2.8,1.4c1.1,0,2.2-0.5,2.9-1.4V22.7z M38.3,25.2
	c-1.6,1.9-4.1,2.8-6.5,2.6c-2.5,0.2-4.9-0.8-6.5-2.6c-1.4-1.8-2.2-4.1-2.1-6.4c-0.1-2.3,0.7-4.6,2.1-6.4c1.6-1.9,4.1-2.9,6.5-2.7
	c2.5-0.2,4.9,0.8,6.5,2.7c1.5,1.8,2.2,4.1,2.2,6.4C40.5,21.1,39.7,23.4,38.3,25.2z M34.7,22.7c0.8-1.2,1.2-2.5,1.1-3.9
	c0.1-1.4-0.3-2.8-1.1-4c-0.7-0.9-1.9-1.5-3-1.4c-1.2-0.1-2.3,0.4-3,1.4c-0.8,1.2-1.1,2.6-1,4c-0.1,1.4,0.3,2.8,1,3.9
	c0.7,1,1.9,1.5,3,1.4C32.9,24.2,34,23.7,34.7,22.7z M56,12.1c1.5,1.8,2.3,4.1,2.1,6.5c0.2,2.5-0.6,4.9-2,6.8
	c-1.3,1.5-3.2,2.4-5.2,2.3c-1.2,0-2.4-0.3-3.4-1c-0.6-0.5-1.1-1-1.4-1.6V34h-4.4V10.4h4.3v2.5c0.4-0.7,0.9-1.3,1.6-1.8
	c1-0.8,2.3-1.3,3.6-1.2C52.9,9.9,54.8,10.7,56,12.1z M52.6,15.1c-0.6-1.1-1.8-1.7-3-1.5c-1.5-0.1-2.9,0.9-3.3,2.3
	c-0.3,1-0.5,2-0.5,3c-0.2,1.6,0.4,3.1,1.6,4.2c0.6,0.5,1.4,0.7,2.2,0.7c1.1,0.1,2.3-0.4,3-1.3c0.7-1.2,1-2.5,1-3.8
	c0-1.2-0.3-2.4-0.9-3.4L52.6,15.1z M20.6,38.9c1.5,1.8,2.2,4.1,2.1,6.5c0.2,2.5-0.5,4.9-2,6.8c-1.3,1.6-3.2,2.4-5.2,2.4
	c-1.2,0-2.4-0.3-3.4-1c-0.6-0.5-1.1-1-1.5-1.6v8.9H6.3V37h4.3v2.5c0.4-0.7,0.9-1.3,1.5-1.8c1-0.8,2.3-1.2,3.6-1.2
	C17.5,36.6,19.4,37.4,20.6,38.9z M17.3,42.1c-0.6-1.1-1.8-1.7-3-1.5c-1.5-0.1-2.9,0.9-3.3,2.3c-0.4,1-0.5,2-0.5,3
	c-0.2,1.6,0.4,3.1,1.6,4.2c0.7,0.5,1.4,0.7,2.3,0.7c1.1,0.1,2.2-0.5,2.9-1.4c0.7-1.1,1.1-2.5,1-3.8C18.2,44.3,17.9,43.1,17.3,42.1z
	 M28.2,54.1h-4.6V31h4.6V54.1z M41.9,37.4c1.2,0.5,2.3,1.4,3,2.5c0.7,1,1.2,2.2,1.4,3.5c0.1,1.2,0,2.3-0.1,3.5H33.8
	c-0.1,1.4,0.6,2.8,1.8,3.6c0.7,0.4,1.6,0.7,2.5,0.6c1.4,0.1,2.8-0.6,3.4-1.9H46c-0.2,1.2-0.8,2.2-1.6,3c-1.7,1.7-4,2.6-6.4,2.5
	c-2.2,0-4.4-0.7-6.1-2.1c-1.9-1.8-2.8-4.3-2.6-6.8c-0.2-2.5,0.7-4.9,2.3-6.8c1.6-1.6,3.8-2.4,6.1-2.3C39.1,36.6,40.6,36.8,41.9,37.4
	z M35.1,41.2c-0.7,0.7-1.1,1.7-1.2,2.6h7.7c0-2-1.6-3.6-3.6-3.6c-0.1,0-0.2,0-0.3,0C36.8,40.2,35.8,40.5,35.1,41.2z M57.1,36.6h0.4
	v4.6h-0.8h-0.5c-1.4-0.2-2.9,0.5-3.6,1.7c-0.4,1-0.6,2-0.5,3v8.1h-4.6V37h4.3v3c0.5-0.9,1.1-1.7,1.8-2.3c0.9-0.7,2.1-1.1,3.2-1.1
	L57.1,36.6z"/>
</svg>
