<?xml version="1.0" encoding="utf-8"?>
<!-- Generator: Adobe Illustrator 24.2.1, SVG Export Plug-In . SVG Version: 6.00 Build 0)  -->
<svg version="1.1" id="Layer_1" xmlns="http://www.w3.org/2000/svg" xmlns:xlink="http://www.w3.org/1999/xlink" x="0px" y="0px"
	 viewBox="0 0 156 156" style="enable-background:new 0 0 156 156;" xml:space="preserve">
<style type="text/css">
	.st0{fill:#FF0000;}
	.st1{fill:#FFFFFF;}
	.st2{fill:#E6E6E6;}
</style>
<g>
	<path class="st0" d="M152.2,40.7c-1.8-6.7-7.1-12-13.8-13.8c-12.1-3.3-60.8-3.3-60.8-3.3S28.9,23.7,16.8,27
		c-6.7,1.8-12,7.1-13.8,13.8c-3.2,12.1-3.2,37.4-3.2,37.4s0,25.3,3.3,37.5c1.8,6.7,7.1,12,13.8,13.8c12.1,3.3,60.8,3.3,60.8,3.3
		s48.7,0,60.8-3.3c6.7-1.8,12-7.1,13.8-13.8c3.3-12.1,3.3-37.5,3.3-37.5S155.5,52.9,152.2,40.7z"/>
	<polygon class="st1" points="62.1,101.6 102.5,78.2 62.1,54.8 	"/>
</g>
<polygon class="st2" points="62.1,54.8 62.1,69.5 102.5,78.2 "/>
</svg>
